# xmcd CD database file
#
# Track frame offsets:
#	150
#	28875
#	50327
#	70397
#	96280
#	109425
#	138500
#	156532
#	184215
#	208545
#	226712
#	260447
#
# Disc length: 3805 seconds
#
# Revision: 0
# Processed by: cddbd v1.5.1PL0 Copyright (c) Steve Scherf et al.
# Submitted via: CDex 1.51
#
DISCID=b20edb0c
DTITLE=Various Artist - Jazz Ballades In The Night
DYEAR=1987
DGENRE=Jazz
TTITLE0=Body And Soul
TTITLE1=As Time Goes By
TTITLE2=The Shadow Of Your Smile
TTITLE3=Misty
TTITLE4=I'm Getting Sentimental Over You
TTITLE5=My Funny Valentine
TTITLE6=Solitude
TTITLE7=Midnight Sun
TTITLE8=Someone To Watch Over Me
TTITLE9=I Surrender Dear
TTITLE10=Autumn In New York
TTITLE11=Left Alone
EXTD=YEAR: 1987
EXTT0=
EXTT1=
EXTT2=
EXTT3=
EXTT4=
EXTT5=
EXTT6=
EXTT7=
EXTT8=
EXTT9=
EXTT10=
EXTT11=
PLAYORDER=
